<svg width="283" height="98" viewBox="0 0 283 98" fill="none" xmlns="http://www.w3.org/2000/svg">
    <path d="M89.2 47.9c0 21.5-16.3 39.3-37.3 41.4-1.4.2-2.9.2-4.4.2-21.3 0-38.9-16-41.4-36.7-.2-1.6-.3-3.3-.3-5 0-23 18.7-41.7 41.7-41.7 23 .1 41.7 18.7 41.7 41.8z" fill="url(#paint0_linear)"/>
    <path opacity=".2" d="M60.1 57.8l5.7 17.6-13.9 13.9c-1.4.2-2.9.2-4.4.2-21.3 0-38.9-16-41.4-36.7l12-12 4.9 3.1 24.5-24.5L58 51.6l19-10.8-16.9 17z" fill="#001E32"/>
    <path d="M47.6 19.4l9.1 18.5 20.4 2.9-14.8 14.4 3.5 20.3-18.2-9.6-18.2 9.6 3.5-20.3-14.7-14.4 20.3-2.9 9.1-18.5z" fill="url(#paint1_radial)"/>
    <path d="M100.7 49.6V33h4.2v12.8h7.9v3.7h-12.1v.1zM129.7 48c-1.4 1.3-3.1 1.9-5.2 1.9s-3.8-.6-5.2-1.9c-1.4-1.3-2-3-2-5.4V33h4.2v9.8c0 1.1.3 1.8.8 2.3.6.5 1.3.8 2.1.8.9 0 1.6-.3 2.2-.8.6-.5.8-1.3.8-2.3V33h4.2v9.6c.1 2.4-.5 4.1-1.9 5.4zM145.7 49.9c-2.6 0-4.8-.8-6.6-2.4-1.8-1.6-2.6-3.7-2.6-6.2s.9-4.6 2.6-6.2c1.7-1.6 3.9-2.4 6.6-2.4 1.6 0 3 .3 4.3.9v4.2c-1.3-.8-2.7-1.2-4.2-1.2-1.4 0-2.5.4-3.5 1.3-.9.9-1.4 2-1.4 3.4s.5 2.5 1.4 3.4c.9.9 2.1 1.3 3.6 1.3 1.7 0 3.2-.4 4.3-1.3v4.2c-1.3.6-2.8 1-4.5 1zM155.3 49.6V33h4.2v6.3l5.4-6.3h5.1l-6.4 7.6 7.6 8.9H166l-6.5-7.3v7.3h-4.2v.1zM179.9 49.6v-7.3l-6.3-9.2h4.8l3.7 5.5 3.7-5.5h4.7l-6.4 9.1v7.4h-4.2zM208.7 49.9c-2.5 0-4.7-.6-6.4-1.8v-4.3c.7.6 1.6 1.2 2.8 1.6 1.2.4 2.3.7 3.4.7 1.7 0 2.5-.4 2.5-1.3 0-.5-.4-.9-1.1-1.2-.2-.1-.9-.3-2.1-.6-.7-.2-1.3-.4-1.7-.5-.4-.1-.9-.3-1.5-.6s-1-.6-1.3-.9c-.3-.3-.6-.8-.8-1.3-.2-.5-.3-1.2-.3-1.8 0-1.6.6-2.8 1.8-3.7 1.2-.9 2.8-1.3 4.7-1.3 2 0 3.9.5 5.6 1.4v4.1c-.7-.4-1.6-.8-2.6-1.1-1-.3-2-.5-2.9-.5-1.4 0-2.2.4-2.2 1.1 0 .2.1.3.2.4.1.1.3.2.5.3.3.1.5.2.7.3.2.1.6.2 1.1.3.5.1.9.2 1.2.4.8.3 1.4.5 1.9.8.5.3 1.1.6 1.6 1s.9.9 1.2 1.5c.3.6.4 1.3.4 2 0 1.6-.6 2.9-1.9 3.9-1.2.6-2.8 1.1-4.8 1.1zM223.8 49.6V36.8h-5V33H233v3.7h-5v12.8h-4.2v.1zM233.9 49.6l6.9-16.6h4.1l6.9 16.6h-4.6l-1.4-3.5h-6.1l-1.4 3.5h-4.4zm7.2-6.9h3.4l-1.7-4.4-1.7 4.4zM256.1 49.6V33h7.8c1.8 0 3.3.5 4.3 1.4 1.1 1 1.6 2.2 1.6 3.7 0 1.1-.3 2-.8 2.8-.5.8-1.3 1.4-2.4 1.8l5 6.8h-4.9l-4.7-6.3h-1.7v6.3h-4.2v.1zm4.2-9.8h3.3c.6 0 1-.1 1.4-.4.3-.3.5-.7.5-1.2s-.2-.9-.5-1.2c-.3-.3-.8-.4-1.4-.4h-3.3v3.2z" fill="#4FA5DB"/>
    <path d="M99.8 66.6v-1.8c.4.4 1 .7 1.7 1 .7.3 1.4.4 2.2.4 1.4 0 2.4-.6 2.4-1.6 0-.4-.2-.7-.5-1-.1-.1-.3-.2-.5-.3-.5-.2-.8-.3-1.4-.5l-.2-.1c-.6-.2-1-.3-1.4-.4-.3-.1-.7-.3-1-.5-.8-.5-1.1-1.2-1.1-2.1 0-1.7 1.5-2.9 3.8-2.9 1.3 0 2.4.3 3.4.9v1.6c-1.1-.6-2.2-1-3.3-1-1.4 0-2.1.6-2.1 1.3 0 .5.3.7.6.9.2.1.7.3.9.4l1.2.3c.8.2 1.3.4 1.9.8.9.5 1.4 1.2 1.5 2.4 0 1-.4 1.7-1.2 2.3-.8.6-1.7.8-2.9.8-1.6.2-2.9-.1-4-.9zM141.9 67.6V57.1h4.5c1.1 0 2 .3 2.6.9.6.6.9 1.3.9 2.2 0 .9-.3 1.7-.9 2.3-.6.6-1.5.9-2.6.9h-2.9v4.3h-1.6v-.1zm1.6-5.9h2.7c1.2 0 2-.6 2-1.6s-.7-1.6-2-1.6h-2.7v3.2zM183.8 67.6V57.1h1.7v10.5h-1.7zM220.1 67.6V57.1h1.4l5.9 7.6v-7.6h1.6v10.5h-1.4l-6-7.6v7.6h-1.5zM263 66.6v-1.8c.4.4 1 .7 1.7 1 .7.3 1.4.4 2.2.4 1.4 0 2.4-.6 2.4-1.6 0-.4-.2-.7-.5-1-.1-.1-.3-.2-.5-.3-.5-.2-.8-.3-1.4-.5l-.2-.1c-.6-.2-1-.3-1.4-.4-.3-.1-.7-.3-1-.5-.8-.5-1.1-1.2-1.1-2.1 0-1.7 1.5-2.9 3.8-2.9 1.3 0 2.4.3 3.4.9v1.6c-1.1-.6-2.2-1-3.3-1-1.4 0-2.1.6-2.1 1.3 0 .5.3.7.6.9.2.1.7.3.9.4l1.2.3c.8.2 1.3.4 1.9.8.9.5 1.4 1.2 1.5 2.4 0 1-.4 1.7-1.2 2.3-.8.6-1.7.8-2.9.8-1.6.2-2.9-.1-4-.9z" fill="#fff"/>
    <defs>
        <radialGradient id="paint1_radial" cx="0" cy="0" r="1" gradientUnits="userSpaceOnUse" gradientTransform="translate(47.607 47.442) scale(28.7441)">
            <stop offset=".556" stop-color="#fff"/>
            <stop offset="1" stop-color="#F3F3F3"/>
        </radialGradient>
        <linearGradient id="paint0_linear" x1="47.504" y1="-133.299" x2="47.504" y2="146.941" gradientUnits="userSpaceOnUse">
            <stop stop-color="#FF001C"/>
            <stop offset=".219" stop-color="#FF009D"/>
            <stop offset=".268" stop-color="#F9049F"/>
            <stop offset=".332" stop-color="#E80FA3"/>
            <stop offset=".406" stop-color="#C2A"/>
            <stop offset=".487" stop-color="#A53CB4"/>
            <stop offset=".574" stop-color="#735DC0"/>
            <stop offset=".663" stop-color="#3785CF"/>
            <stop offset=".737" stop-color="#0AD"/>
            <stop offset="1" stop-color="#FFD400"/>
        </linearGradient>
    </defs>
</svg>
